<svg width="20" height="20" viewBox="0 0 20 20" fill="none" xmlns="http://www.w3.org/2000/svg">
<path fill-rule="evenodd" clip-rule="evenodd" d="M11.8748 2.08333C11.8748 2.02808 11.8529 1.97509 11.8138 1.93602C11.7747 1.89695 11.7218 1.875 11.6665 1.875H5.83317C5.22538 1.875 4.64249 2.11644 4.21272 2.54621C3.78295 2.97598 3.5415 3.55888 3.5415 4.16667V15.8333C3.5415 16.4411 3.78295 17.024 4.21272 17.4538C4.64249 17.8836 5.22538 18.125 5.83317 18.125H14.1665C14.7743 18.125 15.3572 17.8836 15.787 17.4538C16.2167 17.024 16.4582 16.4411 16.4582 15.8333V7.6225C16.4582 7.56725 16.4362 7.51426 16.3972 7.47519C16.3581 7.43612 16.3051 7.41417 16.2498 7.41417H12.4998C12.3341 7.41417 12.1751 7.34832 12.0579 7.23111C11.9407 7.1139 11.8748 6.95493 11.8748 6.78917V2.08333ZM12.4998 10.2083C12.6656 10.2083 12.8246 10.2742 12.9418 10.3914C13.059 10.5086 13.1248 10.6676 13.1248 10.8333C13.1248 10.9991 13.059 11.1581 12.9418 11.2753C12.8246 11.3925 12.6656 11.4583 12.4998 11.4583H7.49984C7.33408 11.4583 7.17511 11.3925 7.0579 11.2753C6.94069 11.1581 6.87484 10.9991 6.87484 10.8333C6.87484 10.6676 6.94069 10.5086 7.0579 10.3914C7.17511 10.2742 7.33408 10.2083 7.49984 10.2083H12.4998ZM12.4998 13.5417C12.6656 13.5417 12.8246 13.6075 12.9418 13.7247C13.059 13.8419 13.1248 14.0009 13.1248 14.1667C13.1248 14.3324 13.059 14.4914 12.9418 14.6086C12.8246 14.7258 12.6656 14.7917 12.4998 14.7917H7.49984C7.33408 14.7917 7.17511 14.7258 7.0579 14.6086C6.94069 14.4914 6.87484 14.3324 6.87484 14.1667C6.87484 14.0009 6.94069 13.8419 7.0579 13.7247C7.17511 13.6075 7.33408 13.5417 7.49984 13.5417H12.4998Z" fill="white" fill-opacity="0.86"/>
<path d="M13.125 2.35322C13.125 2.19988 13.2858 2.10238 13.405 2.19822C13.5061 2.27988 13.5958 2.37488 13.6742 2.48322L16.185 5.98072C16.2417 6.06072 16.18 6.16405 16.0817 6.16405H13.3333C13.2781 6.16405 13.2251 6.1421 13.186 6.10303C13.1469 6.06396 13.125 6.01097 13.125 5.95572V2.35322Z" fill="white" fill-opacity="0.86"/>
</svg>
