<svg width="21" height="20" viewBox="0 0 21 20" fill="none" xmlns="http://www.w3.org/2000/svg">
<path d="M1.92871 5.00007H19.0716M6.92871 5.00007V4.28578C6.92871 3.33858 7.30499 2.43018 7.97476 1.7604C8.64453 1.09063 9.55294 0.714355 10.5001 0.714355C11.4473 0.714355 12.3557 1.09063 13.0255 1.7604C13.6953 2.43018 14.0716 3.33858 14.0716 4.28578V5.00007M8.35728 9.28721V15.0044M12.643 9.28721V15.0044M4.07157 5.00007H16.9287V17.8572C16.9287 18.2361 16.7782 18.5995 16.5103 18.8674C16.2424 19.1353 15.879 19.2858 15.5001 19.2858H5.50014C5.12126 19.2858 4.7579 19.1353 4.48999 18.8674C4.22208 18.5995 4.07157 18.2361 4.07157 17.8572V5.00007Z" stroke="#FF0000" stroke-linecap="round" stroke-linejoin="round"/>
</svg>
